name analog
datacolumns 19
datarows 32
range 0.0 0.0155
endheader
time	ground_force_vx	ground_force_vy	ground_force_vz	ground_force_px	ground_force_py	ground_force_pz	l_ground_force_vx	l_ground_force_vy	l_ground_force_vz	l_ground_force_px	l_ground_force_py	l_ground_force_pz	ground_torque_x	ground_torque_y	ground_torque_z	l_ground_torque_x	l_ground_torque_y	l_ground_torque_z
0.0	-0.0	-0.0	-0.0	0.5631831884384155	1.030556321144104	-87.46730041503906	-1.280068039894104	-16.21979331970215	-690.821044921875	-0.0	-0.0	-0.0	-0.0	-0.0	-0.0	238375.59375	-26966.078125	-1992.5208740234373
0.0005	-0.0	-0.0	-0.0	0.4351235330104828	0.6825712323188782	-88.49320983886719	-1.4889764785766602	-16.131616592407227	-688.924560546875	-0.0	-0.0	-0.0	-0.0	-0.0	-0.0	237430.859375	-26400.76953125	-2140.96728515625
0.001	-0.0	-0.0	-0.0	0.2765778005123138	0.8324628472328186	-89.7785415649414	-1.3689967393875122	-15.81667709350586	-685.7811279296875	-0.0	-0.0	-0.0	-0.0	-0.0	-0.0	236638.5	-26137.1875	-2153.62060546875
0.0015	-0.0	-0.0	-0.0	0.4761504530906677	1.1089378595352173	-92.2991180419922	-1.5005944967269895	-16.017080307006836	-682.469482421875	-0.0	-0.0	-0.0	-0.0	-0.0	-0.0	235803.546875	-25958.169921875	-2312.496826171875
0.002	-0.0	-0.0	-0.0	1.0412218570709229	1.1192257404327393	-91.94536590576172	-1.4579483270645142	-15.798072814941406	-681.0734252929688	-0.0	-0.0	-0.0	-0.0	-0.0	-0.0	235156.234375	-25951.068359375	-2265.96630859375
0.0025	-0.0	-0.0	-0.0	-0.0099092721939086	1.4062789678573608	-92.4154281616211	-1.114519476890564	-15.152779579162598	-678.9474487304688	-0.0	-0.0	-0.0	-0.0	-0.0	-0.0	234177.65625	-25735.646484375	-2176.590087890625
0.003	-0.0	-0.0	-0.0	0.3074035346508026	1.376692295074463	-93.59268188476562	-0.6403961777687073	-15.152658462524414	-676.54638671875	-0.0	-0.0	-0.0	-0.0	-0.0	-0.0	233398.234375	-25633.865234375	-1995.482421875
0.0035	-0.0	-0.0	-0.0	0.4764472544193268	2.030082941055298	-95.08432006835938	-0.4738588631153106	-14.562289237976074	-674.2117919921875	-0.0	-0.0	-0.0	-0.0	-0.0	-0.0	232711.90625	-25832.40625	-1955.352294921875
0.004	-0.0	-0.0	-0.0	0.2000706195831298	2.039184093475342	-95.32222747802734	0.0691697150468826	-14.317068099975586	-671.8446044921875	-0.0	-0.0	-0.0	-0.0	-0.0	-0.0	232058.75	-25485.376953125	-1793.49072265625
0.0045000000000000005	-0.0	-0.0	-0.0	0.0802210867404937	2.6518001556396484	-97.8664321899414	0.0783560574054718	-14.76003074645996	-671.1101684570312	-0.0	-0.0	-0.0	-0.0	-0.0	-0.0	231165.1875	-25983.80859375	-1658.3292236328125
0.005	-0.0	-0.0	-0.0	-0.4749151170253753	1.9407708644866943	-97.99011993408205	0.7197995185852051	-14.278480529785156	-668.1989135742188	-0.0	-0.0	-0.0	-0.0	-0.0	-0.0	230219.34375	-25535.00390625	-1654.3487548828125
0.0055	-0.0	-0.0	-0.0	0.0488328486680984	2.1189589500427246	-98.18402099609376	0.7786752581596375	-14.465121269226074	-665.1727905273438	-0.0	-0.0	-0.0	-0.0	-0.0	-0.0	229905.015625	-25487.228515625	-1555.530029296875
0.006	-0.0	-0.0	-0.0	0.1094475910067558	2.4349944591522217	-100.4960479736328	1.0939308404922483	-14.053241729736328	-664.3956298828125	-0.0	-0.0	-0.0	-0.0	-0.0	-0.0	229214.375	-25566.98046875	-1611.2603759765625
0.006500000000000001	-0.0	-0.0	-0.0	-0.036251425743103	2.8804280757904053	-103.2405014038086	1.0937135219573977	-13.954826354980469	-661.9133911132812	-0.0	-0.0	-0.0	-0.0	-0.0	-0.0	228641.9375	-25690.1875	-1568.32568359375
0.007	-0.0	-0.0	-0.0	0.0892105102539062	2.9287328720092773	-103.75430297851562	0.9666696786880492	-13.65025520324707	-661.521728515625	-0.0	-0.0	-0.0	-0.0	-0.0	-0.0	228279.859375	-25484.6484375	-1551.9609375
0.0075	-0.0	-0.0	-0.0	-0.4127469360828399	2.7426414489746094	-105.35828399658205	1.359519362449646	-13.581676483154297	-659.8180541992188	-0.0	-0.0	-0.0	-0.0	-0.0	-0.0	227812.609375	-25475.197265625	-1535.3631591796875
0.008	-0.0	-0.0	-0.0	-0.0277338773012161	2.92082953453064	-106.1162338256836	1.41937255859375	-13.347930908203123	-658.3084106445312	-0.0	-0.0	-0.0	-0.0	-0.0	-0.0	227404.421875	-25498.341796875	-1591.7806396484375
0.0085	-0.0	-0.0	-0.0	0.0205406695604324	3.338869333267212	-108.47966003417967	1.0930252075195312	-13.23986530303955	-657.5646362304688	-0.0	-0.0	-0.0	-0.0	-0.0	-0.0	227029.5	-25188.27734375	-1627.39599609375
0.009000000000000001	-0.0	-0.0	-0.0	0.0548129379749298	3.496668577194214	-111.46868133544922	1.1047934293746948	-13.669817924499512	-654.9762573242188	-0.0	-0.0	-0.0	-0.0	-0.0	-0.0	226904.375	-25413.296875	-1604.5445556640625
0.0095	-0.0	-0.0	-0.0	-0.047862097620964	3.490233421325684	-112.44464111328124	1.2902528047561646	-13.417037963867188	-656.1838989257812	-0.0	-0.0	-0.0	-0.0	-0.0	-0.0	226291.125	-25371.013671875	-1611.1046142578125
0.01	-0.0	-0.0	-0.0	0.5623061656951904	3.6813652515411377	-114.89054107666016	1.0365760326385498	-13.7100248336792	-654.4998779296875	-0.0	-0.0	-0.0	-0.0	-0.0	-0.0	225757.25	-25324.1484375	-1627.4949951171875
0.0105	-0.0	-0.0	-0.0	0.2468362152576446	3.7850301265716553	-117.09107971191406	1.323250651359558	-13.765325546264648	-651.5677490234375	-0.0	-0.0	-0.0	-0.0	-0.0	-0.0	225409.1875	-25438.33203125	-1618.00634765625
0.011	-0.0	-0.0	-0.0	-0.0475233793258667	4.031692981719971	-119.62237548828124	1.3917803764343262	-14.030052185058594	-650.8704223632812	-0.0	-0.0	-0.0	-0.0	-0.0	-0.0	224935.140625	-24991.10546875	-1732.3145751953125
0.0115	-0.0	-0.0	-0.0	0.4195555448532104	3.9690966606140137	-120.35159301757812	1.0440959930419922	-13.80547332763672	-649.8515625	-0.0	-0.0	-0.0	-0.0	-0.0	-0.0	224165.484375	-24952.37890625	-1670.782958984375
0.012	-0.0	-0.0	-0.0	0.1101878657937049	4.189128875732422	-124.6104507446289	1.139421463012695	-13.737351417541504	-647.5148315429688	-0.0	-0.0	-0.0	-0.0	-0.0	-0.0	223499.875	-24724.025390625	-1666.101318359375
0.0125	-0.0	-0.0	-0.0	0.7869774103164673	4.524643898010254	-124.75575256347656	0.928215503692627	-14.049614906311035	-645.581298828125	-0.0	-0.0	-0.0	-0.0	-0.0	-0.0	223139.8125	-24781.017578125	-1853.2958984375
0.013000000000000001	-0.0	-0.0	-0.0	0.0843448936939239	4.813041687011719	-127.33099365234376	0.8396254181861877	-13.798707008361816	-643.299560546875	-0.0	-0.0	-0.0	-0.0	-0.0	-0.0	222307.3125	-24526.890625	-1810.3228759765625
0.0135	-0.0	-0.0	-0.0	0.4506267607212066	4.587930679321289	-130.05398559570312	0.3962163925170898	-13.33657455444336	-642.08984375	-0.0	-0.0	-0.0	-0.0	-0.0	-0.0	221722.1875	-24617.755859375	-1901.6041259765625
0.014	-0.0	-0.0	-0.0	-0.2508036196231842	4.995678424835205	-131.73611450195312	0.7361921668052673	-13.342320442199709	-641.3098754882812	-0.0	-0.0	-0.0	-0.0	-0.0	-0.0	221198.1875	-24389.654296875	-1922.16455078125
0.0145	-0.0	-0.0	-0.0	-0.059753268957138	4.944694995880127	-133.57008361816406	0.5267835855484009	-13.383463859558104	-638.6586303710938	-0.0	-0.0	-0.0	-0.0	-0.0	-0.0	220518.734375	-24281.921875	-2037.7607421875
0.015	-0.0	-0.0	-0.0	-0.2889727652072906	5.190885543823242	-135.8357391357422	0.6627110242843628	-13.248252868652344	-637.9000244140625	-0.0	-0.0	-0.0	-0.0	-0.0	-0.0	220029.21875	-24332.888671875	-1892.662109375
0.0155	-0.0	-0.0	-0.0	-0.4674420356750488	4.944912433624268	-137.21763610839844	1.0854451656341553	-12.874141693115234	-636.2990112304688	-0.0	-0.0	-0.0	-0.0	-0.0	-0.0	219747.21875	-24357.783203125	-1878.3265380859373
